<svg width="293" height="64" viewBox="0 0 293 64" fill="none" xmlns="http://www.w3.org/2000/svg"><path fill-rule="evenodd" clip-rule="evenodd" d="M27.2878 0.249998L0.104834 15.9875L0.104835 47.4528L27.2878 63.1903L54.4707 47.4528L54.4707 15.9875L27.2878 0.249998ZM50.4414 20.6434L50.4414 42.7969L31.3088 31.7201L50.4414 20.6434ZM29.3024 35.2145L48.435 46.2913L29.3024 57.368L29.3024 35.2145ZM25.2731 57.368L6.14052 46.2912L25.2731 35.2145L25.2731 57.368ZM4.13418 42.7969L23.2668 31.7201L4.13418 20.6434L4.13418 42.7969ZM6.14052 17.149L27.2878 29.3922L48.435 17.1491L27.2878 4.90591L6.14052 17.149Z" fill="#030303"/><path d="M99.1289 15.3807L87.6866 35.5033H87.5989L76.1566 15.3807L72.2986 15.3807L72.2987 46.5072H76.1128L76.1127 22.6582H76.2004L86.3275 40.2381H88.9141L99.0412 22.6582H99.1289L99.1289 46.5072L102.943 46.5072L102.943 15.3807L99.1289 15.3807Z" fill="#030303"/><path fill-rule="evenodd" clip-rule="evenodd" d="M98.9742 15.1152L103.207 15.1152L103.207 46.7717H98.8634L98.8634 23.4961L89.0667 40.5025H86.1739L76.3772 23.4961L76.3772 46.7717H72.0332L72.0332 15.1152L76.3102 15.1152L87.6422 35.044L98.9742 15.1152ZM87.6866 35.5033H87.5989L76.1566 15.3807L72.2986 15.3807L72.2987 46.5072H76.1128L76.1127 22.6582H76.2004L86.3275 40.2381H88.9141L99.0412 22.6582H99.1289L99.1289 46.5072L102.943 46.5072L102.943 15.3807L99.1289 15.3807L87.6866 35.5033Z" fill="#030303"/><path d="M122.239 29.0753C120.924 26.7518 118.118 25.4804 115.137 25.4804C109.35 25.4804 105.01 30.1275 105.01 36.2213C105.01 42.5343 109.613 47.006 114.961 47.006C118.118 47.006 120.924 45.3839 122.239 43.0165L122.239 46.4799L126.535 46.4799L126.535 26.0065L122.239 26.0065L122.239 29.0753ZM115.707 42.9727C112.112 42.9727 109.35 39.9039 109.35 36.2213C109.35 32.5825 112.112 29.5137 115.619 29.5137C118.907 29.5137 122.195 32.2757 122.195 36.2213C122.195 40.0792 119.126 42.9727 115.707 42.9727Z" fill="#030303"/><path d="M137.688 34.8622L146.325 26.0065L140.494 26.0065L133.786 32.9771L133.786 14.8711L129.49 14.8711L129.49 46.4799L133.786 46.4799L133.786 36.7474L142.73 46.4799L148.341 46.4799L137.688 34.8622Z" fill="#030303"/><path d="M167.199 36.1336C167.199 29.6891 162.771 25.4804 156.94 25.4804C151.109 25.4804 146.375 29.6891 146.375 36.1774C146.375 42.6658 151.022 47.006 156.94 47.006C160.842 47.006 164.525 45.1647 166.322 41.7452L162.902 40.0354C161.763 41.9205 159.527 43.0165 157.116 43.0165C153.828 43.0165 151.373 41.3068 150.803 37.9749L167.111 37.9749C167.155 37.3173 167.199 36.7035 167.199 36.1336ZM150.846 34.5115C151.46 31.092 153.828 29.4699 156.984 29.4699C160.141 29.4699 162.464 31.3112 162.902 34.5115L150.846 34.5115Z" fill="#030303"/><path d="M175.903 47.006C180.112 47.006 183.97 44.6386 183.97 40.7368C183.97 38.5448 183.005 35.8267 178.621 34.7307L175.509 33.9854C174.237 33.6786 173.054 32.9771 173.054 31.7057C173.054 30.3029 174.281 29.1192 176.079 29.1192C177.613 29.1192 179.147 30.1275 179.147 31.6181L183.268 31.6181C183.268 27.3217 179.498 25.4804 175.991 25.4804C171.738 25.4804 168.713 28.2424 168.713 31.5742C168.713 34.5992 170.467 36.572 174.281 37.5803L177.043 38.2379C178.577 38.5887 179.673 39.2901 179.673 40.6491C179.673 42.1836 178.227 43.3672 175.859 43.3672C173.536 43.3672 172.089 41.9644 172.089 40.3423L168.1 40.3423C168.187 44.6386 172.089 47.006 175.903 47.006Z" fill="#030303"/><path d="M196.876 25.4804C194.684 25.4804 191.396 26.6203 190.212 29.1192L190.212 14.8711L185.916 14.8711L185.916 46.4799L190.212 46.4799L190.212 35.476C190.212 31.2673 193.456 29.6891 196.13 29.6891C198.761 29.6891 200.777 31.7057 200.777 35.0376L200.777 46.4799L205.074 46.4799L205.074 34.7746C205.118 28.9438 202.049 25.4804 196.876 25.4804Z" fill="#030303"/><path d="M224.501 29.0753C223.186 26.7518 220.38 25.4804 217.399 25.4804C211.612 25.4804 207.272 30.1275 207.272 36.2213C207.272 42.5343 211.875 47.006 217.224 47.006C220.38 47.006 223.186 45.3839 224.501 43.0165L224.501 46.4799L228.798 46.4799L228.798 26.0065L224.501 26.0065L224.501 29.0753ZM217.969 42.9727C214.374 42.9727 211.612 39.9039 211.612 36.2213C211.612 32.5826 214.374 29.5137 217.882 29.5137C221.17 29.5137 224.458 32.2757 224.458 36.2213C224.458 40.0792 221.389 42.9727 217.969 42.9727Z" fill="#030303"/><path d="M243.151 25.4804C240.389 25.4804 237.408 26.7518 236.049 29.0753L236.049 26.0065L231.753 26.0065L231.753 56.4316L236.049 56.4316L236.049 43.4549C237.408 45.7785 240.258 47.006 243.151 47.006C248.719 47.006 253.322 42.7973 253.322 36.2651C253.322 29.7768 248.675 25.4804 243.151 25.4804ZM242.625 42.9727C239.468 42.9727 236.093 40.43 236.093 36.309C236.093 32.188 239.205 29.5137 242.625 29.5137C246.176 29.5137 248.982 32.451 248.982 36.309C248.982 40.1669 246.176 42.9727 242.625 42.9727Z" fill="#030303"/><path d="M275.786 36.1336C275.786 29.6891 271.358 25.4804 265.527 25.4804C259.696 25.4804 254.961 29.6891 254.961 36.1775C254.961 42.6658 259.609 47.006 265.527 47.006C269.429 47.006 273.111 45.1647 274.909 41.7452L271.489 40.0354C270.349 41.9205 268.114 43.0165 265.702 43.0165C262.414 43.0165 259.959 41.3068 259.389 37.9749L275.698 37.9749C275.742 37.3173 275.786 36.7035 275.786 36.1336ZM259.433 34.5115C260.047 31.092 262.414 29.4699 265.571 29.4699C268.727 29.4699 271.051 31.3112 271.489 34.5115L259.433 34.5115Z" fill="#030303"/><path d="M284.49 47.006C288.699 47.006 292.557 44.6386 292.557 40.7368C292.557 38.5448 291.592 35.8267 287.208 34.7307L284.095 33.9854C282.824 33.6786 281.64 32.9771 281.64 31.7058C281.64 30.3029 282.868 29.1192 284.665 29.1192C286.2 29.1192 287.734 30.1275 287.734 31.6181L291.855 31.6181C291.855 27.3217 288.085 25.4804 284.578 25.4804C280.325 25.4804 277.3 28.2424 277.3 31.5742C277.3 34.5992 279.054 36.572 282.868 37.5803L285.63 38.2379C287.164 38.5887 288.26 39.2901 288.26 40.6492C288.26 42.1836 286.813 43.3673 284.446 43.3673C282.123 43.3673 280.676 41.9644 280.676 40.3423L276.686 40.3423C276.774 44.6386 280.676 47.006 284.49 47.006Z" fill="#030303"/></svg>
